<?xml version="1.0" encoding="UTF-8"?><svg id="Layer_1" xmlns="http://www.w3.org/2000/svg" xmlns:xlink="http://www.w3.org/1999/xlink" viewBox="0 0 290.52 166.74"><defs><style>.cls-1{fill:url(#linear-gradient);}.cls-1,.cls-2,.cls-3,.cls-4,.cls-5{fill-rule:evenodd;}.cls-6{fill:#1c75bc;}.cls-7{fill:#061839;}.cls-2{fill:url(#linear-gradient-3);}.cls-3{fill:url(#linear-gradient-2);}.cls-4{fill:url(#linear-gradient-4);}.cls-5{fill:url(#Sky_24);}</style><linearGradient id="linear-gradient" x1="79.61" y1="152.5" x2="21" y2="152.5" gradientTransform="matrix(1, 0, 0, 1, 0, 0)" gradientUnits="userSpaceOnUse"><stop offset=".15" stop-color="#8ed5e3"/><stop offset=".44" stop-color="#43b7e9"/><stop offset=".62" stop-color="#469bd5"/><stop offset=".84" stop-color="#487cbf"/></linearGradient><linearGradient id="linear-gradient-2" x1="79.07" y1="64.88" x2="20.47" y2="64.88" xlink:href="#linear-gradient"/><linearGradient id="Sky_24" x1="103.75" y1="112.57" x2="12.02" y2="112.57" gradientTransform="matrix(1, 0, 0, 1, 0, 0)" gradientUnits="userSpaceOnUse"><stop offset=".02" stop-color="#573734"/><stop offset=".43" stop-color="#d6562b"/><stop offset=".74" stop-color="#ed7c31"/><stop offset="1" stop-color="#f4bb3a"/></linearGradient><linearGradient id="linear-gradient-3" x1="86.48" y1="98.23" x2="28.36" y2="98.23" gradientTransform="matrix(1, 0, 0, 1, 0, 0)" gradientUnits="userSpaceOnUse"><stop offset="0" stop-color="#f4bb3a"/><stop offset=".26" stop-color="#ed7c31"/><stop offset=".57" stop-color="#d6562b"/><stop offset=".98" stop-color="#573734"/></linearGradient><linearGradient id="linear-gradient-4" x1="47.4" y1="1.79" x2="-.04" y2="103.54" gradientTransform="matrix(1, 0, 0, 1, 0, 0)" gradientUnits="userSpaceOnUse"><stop offset=".17" stop-color="#f4bb3a"/><stop offset=".26" stop-color="#f2ab37"/><stop offset=".43" stop-color="#ed8332"/><stop offset=".46" stop-color="#ed7c31"/><stop offset=".55" stop-color="#e8752f"/><stop offset=".68" stop-color="#dd622c"/><stop offset=".74" stop-color="#d6562b"/><stop offset=".78" stop-color="#cd532b"/><stop offset=".83" stop-color="#b64e2d"/><stop offset=".91" stop-color="#90442f"/><stop offset=".99" stop-color="#5b3833"/><stop offset="1" stop-color="#573734"/></linearGradient></defs><g><path class="cls-1" d="M59.43,138.25c-1.1,1.07-2.18,2.17-3.48,2.98l.65,9.43c0,5.7-1.2,10.81-5.08,10.6-1.34-.07-1.52,.13-.64-.91,2.79-3.28,3.22-8.09,.04-11.34-2.13-2.18-5.25-2.83-7.92-1.96-11.46,3.71-7.6,17.46,2.34,19.39,7.95,1.55,15.54-3.05,14.84-14.09l-.76-14.11Z"/><path class="cls-3" d="M73.56,19.23c-.37-8.09-1.56-12.82-2.98-15.57C69.15,.92,67.5,.15,66.23,0c-1.27-.14-7.23,2.24-11.93,10.16-4.7,7.92-7.99,23.07-4.21,45.07-7.49,6.32-20.75,15.56-25.95,25.28-4.88,9.13-4.65,19.7-.74,27.98,3.11,.87,6.15,1.97,9.39,2.06-2.4-4.39-2.94-9.26-2.02-14.02,2.32-12.03,11.2-20.77,20.23-28.3l.43,5.41,3.35,56.11c.15-.16,.32-.31,.5-.44,.94-.68,2.1-1.79,3.15-2.83l-2.37-34.62-1.56-19.76-.52-6.4c6.06-5.25,11.21-10.46,14.72-17.56,3.51-7.1,5.38-16.1,4.87-28.92Zm-4.44,11.74c-2.46,7.6-6.49,12.82-9.92,16.14-3.43,3.32-6.27,5.8-6.27,5.8-.7-7.32-1.56-14.19,.21-21.3,1.72-6.9,4.58-11.47,7.33-14.37,3.4-3.57,6.65-4.6,7.46-4.35,.82,.25,1.83,1.87,2.28,4.88,.45,3.01,.34,7.41-1.09,13.21Z"/><path class="cls-5" d="M54.23,129.83c-4.21-9-17.46-16.68-23.95-24.08-6.66-7.64-11.37-17.67-5.12-26.94-1.49,2.07-2.46,3.84-3.41,6.09-4.28,10.22-2.89,21.16,5.4,30.5,7.74,8.73,18.95,14.27,23.17,30.94,5.88-4.89,29.21-23.14,31.05-41.16,1.17-14.86-13.3-15.78-13.3-15.78,0,0,9.53,4.81,3.12,20.55-1.12,3.69-14.04,17.47-16.96,19.89Z"/><path class="cls-2" d="M55.46,99.53c2.38-5.3,7.2-9.61,13.35-9,7.2,.71,11.58,7.1,11.92,13.99,.17,4.31-1.05,8.76-3.16,12.43,4.08-7.13,6.45-14.61,5.81-22.04-1.53-16.64-15.8-18.44-24.12-11.79-2.38,1.94-4.28,4.59-5.23,7.74-2.62-4.28-7.88-6.08-12.43-4.79-12.26,3.47-8.76,19.53,1.09,26.02-1.22-1.19-2.11-2.41-2.68-3.6-5.3-10.56,7.2-18.48,15.45-8.97h0Z"/><path class="cls-4" d="M18.24,111.49c-6.23-2.68-12.47-4.2-13.11-7.11-1.3-5.88,.7-11.48-.15-14.78-.11-1.2-.65-2.6-1.59-3.02-1.21-.55-2.59-.48-3.18-1.31-.49-.69-.11-2.53,1.05-3.93,1.47-1.78,5.96-2.95,6.43-5.45-.34-1.32-1.83-3.35-3.28-5.07-1.49-1.77-3.33-3.29-2.48-4.88,.84-1.54,1.77-.96,5.28-5.39,1.54-1.94,1.07-2.14,.04-3.73-1.85-2.87-6.17-7.66-2.21-9.7,3.41-1.75,14.83-7.78,17.62-9.71,5.96-4.12,5.79-10.5,6.96-13.99,1.38-4.11,14.38-16.17,21.38-19.95-.9,1.13-1.78,2.39-2.62,3.8h0c-.74,1.27-1.48,2.72-2.18,4.37-.67,1.57-1.29,3.29-1.83,5.15-2.55,8.7-3.64,20.8-1.4,36.11-3.4,2.9-7.32,6.39-11.1,10.22-4.74,4.81-9.2,10.12-12.08,15.48l-.02,.04c-1.08,2.01-1.95,3.99-2.62,5.92-.69,1.98-1.21,4-1.56,6.02-1.28,7.35-.28,14.58,2.66,20.91"/></g><g><path class="cls-6" d="M104.43,42.95c0,1.01-.12,1.92-.37,2.73-.25,.8-.62,1.48-1.1,2.04-.49,.55-1.08,.98-1.79,1.27-.71,.3-1.53,.44-2.45,.44-.84,0-1.69-.12-2.56-.36,.02-.25,.04-.49,.06-.73,.03-.24,.05-.48,.06-.72,.02-.14,.07-.26,.16-.35,.09-.09,.23-.13,.41-.13,.15,0,.35,.04,.6,.11,.25,.08,.59,.11,1.01,.11,.56,0,1.06-.08,1.5-.25,.44-.17,.81-.43,1.1-.79,.3-.36,.52-.81,.68-1.36,.16-.55,.23-1.21,.23-1.97v-11.95h2.46v11.9Z"/><path class="cls-6" d="M118.56,36.38v12.85h-1.34c-.32,0-.52-.16-.61-.47l-.18-1.38c-.56,.62-1.18,1.11-1.88,1.49-.69,.38-1.49,.56-2.38,.56-.7,0-1.32-.12-1.86-.35-.54-.23-.99-.56-1.35-.98-.36-.42-.64-.93-.82-1.53-.18-.6-.27-1.26-.27-1.99v-8.19h2.26v8.19c0,.97,.22,1.72,.67,2.26s1.12,.8,2.04,.8c.67,0,1.29-.16,1.87-.48,.58-.32,1.11-.75,1.6-1.31v-9.46h2.26Z"/><path class="cls-6" d="M121.81,38.2c.71-.68,1.48-1.2,2.3-1.53,.82-.34,1.73-.51,2.73-.51,.72,0,1.36,.12,1.92,.35,.56,.24,1.03,.57,1.41,.99,.38,.42,.67,.93,.86,1.53,.19,.6,.29,1.26,.29,1.98v8.22h-1c-.22,0-.39-.04-.51-.11-.12-.07-.21-.21-.28-.42l-.25-1.22c-.34,.31-.67,.59-.99,.83s-.66,.44-1.01,.61c-.35,.16-.73,.29-1.13,.38-.4,.09-.85,.13-1.34,.13s-.97-.07-1.41-.21c-.44-.14-.82-.35-1.15-.63-.33-.28-.58-.63-.77-1.06-.19-.43-.29-.93-.29-1.52,0-.51,.14-1,.42-1.47,.28-.47,.73-.89,1.36-1.25,.63-.36,1.44-.66,2.45-.89,1.01-.23,2.24-.37,3.7-.4v-1c0-1-.22-1.75-.65-2.26-.43-.51-1.06-.77-1.89-.77-.56,0-1.03,.07-1.4,.21-.38,.14-.7,.3-.98,.47-.27,.17-.51,.33-.71,.47-.2,.14-.4,.21-.59,.21-.15,0-.28-.04-.39-.12-.11-.08-.2-.18-.28-.3l-.41-.72Zm7.29,5.25c-1.04,.03-1.93,.12-2.66,.25-.73,.13-1.33,.3-1.79,.51-.46,.21-.79,.46-1,.75-.21,.29-.31,.61-.31,.96s.06,.63,.16,.88,.26,.45,.45,.6,.41,.27,.67,.34c.26,.07,.53,.11,.83,.11,.4,0,.76-.04,1.09-.12,.33-.08,.64-.2,.93-.35,.29-.15,.57-.33,.84-.55,.27-.21,.53-.45,.78-.72v-2.66Z"/><path class="cls-6" d="M136.87,38.25c.28-.31,.57-.6,.89-.85s.64-.47,1-.65c.35-.18,.72-.32,1.12-.42,.39-.1,.82-.15,1.27-.15,.7,0,1.32,.12,1.86,.35,.54,.23,.98,.56,1.34,.99,.36,.43,.63,.94,.82,1.54,.19,.6,.28,1.26,.28,1.99v8.18h-2.27v-8.18c0-.97-.22-1.73-.67-2.26-.44-.54-1.12-.81-2.02-.81-.67,0-1.29,.16-1.87,.48-.58,.32-1.11,.76-1.6,1.31v9.46h-2.27v-12.85h1.36c.32,0,.52,.16,.6,.47l.18,1.4Z"/><path class="cls-6" d="M166.02,30.55v18.68h-1.34c-.32,0-.52-.16-.61-.47l-.2-1.56c-.55,.66-1.18,1.19-1.88,1.6s-1.51,.61-2.43,.61c-.74,0-1.4-.14-2-.42-.6-.28-1.11-.7-1.53-1.25-.42-.55-.75-1.23-.98-2.05-.23-.82-.34-1.76-.34-2.83,0-.95,.13-1.83,.38-2.64,.25-.82,.62-1.52,1.09-2.12,.47-.6,1.05-1.07,1.74-1.41s1.46-.51,2.33-.51c.79,0,1.46,.13,2.02,.4s1.06,.64,1.5,1.11v-7.11h2.26Zm-2.26,8.89c-.42-.57-.88-.96-1.37-1.19-.49-.22-1.04-.34-1.65-.34-1.19,0-2.11,.43-2.75,1.28-.64,.85-.96,2.07-.96,3.65,0,.84,.07,1.55,.22,2.15s.36,1.09,.63,1.47,.62,.67,1.03,.84c.41,.18,.87,.27,1.38,.27,.74,0,1.39-.17,1.95-.51,.55-.34,1.06-.82,1.53-1.43v-6.2Z"/><path class="cls-6" d="M180.02,47.43c-.28,.34-.61,.63-1,.88-.39,.25-.81,.45-1.25,.62-.44,.16-.9,.28-1.38,.36-.47,.08-.94,.12-1.41,.12-.89,0-1.71-.15-2.45-.45-.75-.3-1.39-.74-1.94-1.32s-.97-1.3-1.27-2.15c-.3-.85-.46-1.83-.46-2.94,0-.9,.14-1.73,.41-2.51,.27-.78,.67-1.45,1.19-2.02,.52-.57,1.15-1.02,1.89-1.34,.74-.33,1.58-.49,2.51-.49,.77,0,1.48,.13,2.14,.39,.66,.26,1.22,.63,1.7,1.12,.48,.49,.85,1.09,1.12,1.8,.27,.71,.41,1.53,.41,2.44,0,.36-.04,.59-.11,.71-.08,.12-.22,.18-.43,.18h-8.59c.03,.81,.14,1.52,.34,2.12,.2,.6,.48,1.1,.83,1.5,.36,.4,.78,.7,1.27,.9,.49,.2,1.04,.3,1.65,.3,.57,0,1.05-.07,1.47-.2,.41-.13,.76-.27,1.06-.42,.3-.15,.54-.29,.74-.42,.2-.13,.37-.2,.51-.2,.19,0,.33,.07,.43,.22l.63,.82Zm-1.83-6.02c0-.52-.07-1-.22-1.44-.15-.44-.36-.81-.65-1.13-.28-.32-.63-.56-1.03-.74-.41-.17-.87-.26-1.38-.26-1.08,0-1.94,.32-2.57,.94-.63,.63-1.02,1.5-1.17,2.62h7.03Z"/><path class="cls-6" d="M192.48,33.06v6.35h7.47v2h-7.47v7.81h-2.46V31.06h11.2v2h-8.74Z"/><path class="cls-6" d="M213.44,36.38v12.85h-1.34c-.32,0-.52-.16-.61-.47l-.18-1.38c-.56,.62-1.18,1.11-1.88,1.49s-1.49,.56-2.38,.56c-.7,0-1.32-.12-1.86-.35-.54-.23-.99-.56-1.35-.98-.36-.42-.64-.93-.82-1.53-.18-.6-.27-1.26-.27-1.99v-8.19h2.26v8.19c0,.97,.22,1.72,.67,2.26s1.12,.8,2.04,.8c.67,0,1.29-.16,1.87-.48,.58-.32,1.11-.75,1.6-1.31v-9.46h2.26Z"/><path class="cls-6" d="M225.96,38.67c-.07,.09-.14,.17-.2,.22-.07,.05-.16,.08-.28,.08-.13,0-.27-.05-.42-.16s-.34-.22-.56-.35c-.22-.13-.5-.24-.82-.35-.33-.11-.73-.16-1.2-.16-.63,0-1.19,.11-1.67,.34-.48,.22-.89,.55-1.21,.97-.33,.42-.57,.93-.74,1.53-.17,.6-.25,1.27-.25,2.02s.09,1.47,.27,2.07c.18,.6,.43,1.11,.75,1.52,.33,.41,.72,.72,1.18,.94,.46,.22,.98,.32,1.55,.32s1-.07,1.36-.2,.65-.28,.88-.44c.23-.16,.43-.31,.58-.44,.16-.13,.31-.2,.46-.2,.19,0,.33,.07,.43,.22l.63,.82c-.28,.35-.6,.64-.95,.89-.36,.25-.74,.45-1.15,.62-.41,.16-.84,.28-1.29,.36-.45,.08-.9,.11-1.37,.11-.8,0-1.55-.15-2.24-.44-.69-.3-1.29-.72-1.79-1.29-.51-.56-.9-1.25-1.19-2.07-.29-.82-.43-1.75-.43-2.8,0-.96,.13-1.84,.4-2.65,.27-.81,.65-1.51,1.17-2.1,.51-.59,1.14-1.05,1.89-1.38,.75-.33,1.61-.49,2.58-.49,.9,0,1.7,.15,2.39,.44s1.3,.7,1.83,1.24l-.6,.81Z"/><path class="cls-6" d="M228.8,38.2c.71-.68,1.48-1.2,2.3-1.53,.82-.34,1.73-.51,2.73-.51,.72,0,1.36,.12,1.92,.35,.56,.24,1.03,.57,1.41,.99,.38,.42,.67,.93,.86,1.53,.19,.6,.29,1.26,.29,1.98v8.22h-1c-.22,0-.39-.04-.51-.11-.12-.07-.21-.21-.28-.42l-.25-1.22c-.34,.31-.67,.59-.99,.83-.32,.24-.66,.44-1.02,.61-.36,.16-.73,.29-1.13,.38-.4,.09-.85,.13-1.34,.13s-.97-.07-1.41-.21c-.44-.14-.82-.35-1.15-.63-.33-.28-.58-.63-.77-1.06-.19-.43-.29-.93-.29-1.52,0-.51,.14-1,.42-1.47,.28-.47,.73-.89,1.36-1.25,.63-.36,1.44-.66,2.45-.89,1.01-.23,2.24-.37,3.7-.4v-1c0-1-.22-1.75-.65-2.26-.43-.51-1.06-.77-1.89-.77-.56,0-1.02,.07-1.4,.21-.38,.14-.7,.3-.98,.47-.27,.17-.51,.33-.71,.47-.2,.14-.4,.21-.59,.21-.15,0-.28-.04-.39-.12-.11-.08-.2-.18-.28-.3l-.41-.72Zm7.29,5.25c-1.04,.03-1.93,.12-2.66,.25-.73,.13-1.33,.3-1.79,.51-.46,.21-.79,.46-1,.75-.21,.29-.31,.61-.31,.96s.06,.63,.17,.88c.11,.25,.26,.45,.45,.6s.41,.27,.67,.34c.26,.07,.54,.11,.83,.11,.4,0,.76-.04,1.09-.12,.33-.08,.64-.2,.93-.35s.57-.33,.84-.55c.27-.21,.53-.45,.78-.72v-2.66Z"/><path class="cls-7" d="M105.34,57.36c1.47,0,2.74,.17,3.81,.52,1.07,.35,1.95,.83,2.64,1.44,.69,.62,1.2,1.35,1.53,2.2,.33,.85,.5,1.77,.5,2.77,0,1.06-.17,2.02-.52,2.9-.35,.88-.87,1.63-1.57,2.26-.7,.63-1.58,1.12-2.65,1.47-1.07,.35-2.31,.53-3.74,.53h-2.81v7.38h-4.44v-21.47h7.25Zm0,10.68c1.39,0,2.41-.34,3.06-1.01,.65-.67,.97-1.59,.97-2.75,0-.53-.08-1.02-.24-1.46-.16-.44-.41-.81-.74-1.12-.33-.31-.75-.55-1.25-.72-.5-.17-1.1-.25-1.79-.25h-2.81v7.31h2.81Z"/><path class="cls-7" d="M121.12,60.83v5.52h7.16v3.36h-7.16v5.64h9.2v3.48h-13.67v-21.47h13.67v3.48h-9.2Z"/><path class="cls-7" d="M150.75,78.83h-4.01c-.75,0-1.29-.29-1.63-.86l-4.08-6.58c-.17-.26-.35-.44-.56-.56-.2-.12-.5-.18-.9-.18h-1.51v8.18h-4.44v-21.47h6.75c1.5,0,2.78,.16,3.85,.47,1.07,.31,1.94,.74,2.62,1.29,.68,.55,1.18,1.21,1.49,1.98s.47,1.61,.47,2.52c0,.71-.1,1.38-.3,2.02-.2,.64-.5,1.22-.88,1.74-.38,.52-.86,.99-1.42,1.39-.56,.4-1.2,.73-1.92,.98,.29,.16,.55,.35,.8,.57s.47,.49,.67,.79l5,7.72Zm-10.4-11.3c.72,0,1.34-.09,1.86-.27,.52-.18,.95-.43,1.29-.76,.34-.32,.58-.7,.74-1.13,.16-.43,.24-.91,.24-1.42,0-1.02-.34-1.81-1.01-2.37-.68-.56-1.7-.84-3.08-.84h-2.31v6.79h2.28Z"/><path class="cls-7" d="M157.32,60.83v5.93h7.72v3.49h-7.72v8.57h-4.47v-21.47h13.67v3.48h-9.2Z"/><path class="cls-7" d="M190.16,68.08c0,1.57-.26,3.02-.79,4.36-.53,1.34-1.27,2.5-2.23,3.48-.96,.98-2.12,1.74-3.47,2.3-1.35,.56-2.85,.84-4.5,.84s-3.15-.28-4.5-.84c-1.35-.56-2.51-1.32-3.48-2.3s-1.71-2.14-2.24-3.48c-.53-1.34-.79-2.8-.79-4.36s.26-3.02,.79-4.36c.53-1.34,1.27-2.49,2.24-3.47s2.13-1.74,3.48-2.3c1.35-.56,2.85-.84,4.5-.84s3.15,.28,4.5,.84,2.51,1.33,3.47,2.31c.96,.98,1.71,2.14,2.23,3.48s.79,2.78,.79,4.34Zm-4.54,0c0-1.12-.15-2.13-.44-3.03s-.72-1.65-1.28-2.28c-.56-.63-1.23-1.1-2.03-1.44-.79-.33-1.69-.5-2.7-.5s-1.91,.17-2.71,.5c-.8,.33-1.48,.81-2.03,1.44-.56,.63-.98,1.39-1.28,2.28s-.44,1.9-.44,3.03,.15,2.15,.44,3.04,.72,1.65,1.28,2.27c.56,.62,1.24,1.1,2.03,1.43,.8,.33,1.7,.5,2.71,.5s1.91-.17,2.7-.5c.79-.33,1.47-.81,2.03-1.43,.56-.62,.98-1.38,1.28-2.27s.44-1.91,.44-3.04Z"/><path class="cls-7" d="M210.53,78.83h-4.01c-.75,0-1.29-.29-1.63-.86l-4.08-6.58c-.17-.26-.35-.44-.56-.56-.2-.12-.5-.18-.9-.18h-1.51v8.18h-4.44v-21.47h6.75c1.5,0,2.78,.16,3.85,.47,1.07,.31,1.94,.74,2.62,1.29,.68,.55,1.18,1.21,1.49,1.98,.32,.76,.47,1.61,.47,2.52,0,.71-.1,1.38-.3,2.02-.2,.64-.5,1.22-.88,1.74-.38,.52-.86,.99-1.42,1.39-.56,.4-1.2,.73-1.92,.98,.29,.16,.55,.35,.8,.57,.25,.22,.47,.49,.67,.79l5,7.72Zm-10.4-11.3c.72,0,1.34-.09,1.86-.27,.52-.18,.95-.43,1.29-.76,.34-.32,.58-.7,.74-1.13,.16-.43,.24-.91,.24-1.42,0-1.02-.34-1.81-1.01-2.37-.68-.56-1.7-.84-3.08-.84h-2.31v6.79h2.28Z"/><path class="cls-7" d="M236.31,57.36v21.47h-3.92v-13.18c0-.28,0-.57,.02-.89,.01-.32,.04-.64,.08-.96l-6.14,11.65c-.34,.64-.85,.96-1.55,.96h-.62c-.35,0-.65-.08-.92-.24-.27-.16-.48-.4-.64-.72l-6.17-11.69c.03,.34,.05,.68,.07,1,.02,.32,.03,.62,.03,.9v13.18h-3.92v-21.47h3.37c.19,0,.36,0,.5,.01s.28,.04,.39,.08c.11,.04,.22,.11,.31,.21,.09,.09,.18,.22,.27,.39l6.01,11.45c.19,.35,.36,.7,.53,1.07,.16,.37,.32,.74,.47,1.12,.15-.39,.3-.78,.47-1.15,.16-.37,.34-.73,.53-1.08l5.96-11.41c.09-.17,.18-.3,.28-.39s.2-.16,.32-.21c.11-.04,.24-.07,.38-.08s.31-.01,.51-.01h3.37Z"/><path class="cls-7" d="M245.26,78.83h-4.47v-21.47h4.47v21.47Z"/><path class="cls-7" d="M268.15,57.36v21.47h-2.29c-.35,0-.64-.06-.87-.17-.24-.11-.47-.31-.7-.58l-10.7-13.61c.03,.35,.05,.69,.07,1.02,.01,.34,.02,.65,.02,.93v12.41h-3.92v-21.47h2.34c.19,0,.35,0,.48,.02s.25,.05,.36,.1c.11,.05,.21,.13,.31,.21,.1,.09,.21,.21,.33,.36l10.77,13.67c-.04-.37-.07-.74-.09-1.09-.02-.35-.03-.68-.03-1v-12.28h3.92Z"/><path class="cls-7" d="M283.09,67.89h7.37v8.86c-1.09,.8-2.26,1.38-3.5,1.75-1.24,.37-2.55,.55-3.93,.55-1.77,0-3.36-.27-4.79-.82-1.43-.55-2.65-1.31-3.67-2.29-1.02-.98-1.8-2.14-2.35-3.48-.55-1.34-.83-2.81-.83-4.39s.26-3.08,.79-4.42c.53-1.34,1.28-2.5,2.26-3.46s2.16-1.72,3.54-2.26c1.39-.54,2.94-.81,4.65-.81,.89,0,1.72,.07,2.49,.21,.77,.14,1.48,.34,2.13,.59,.65,.25,1.25,.55,1.79,.9,.54,.35,1.04,.73,1.48,1.14l-1.29,1.98c-.2,.32-.45,.51-.77,.58-.32,.07-.66,0-1.04-.24-.36-.22-.7-.41-1.04-.58-.34-.17-.7-.32-1.09-.45-.38-.13-.8-.23-1.26-.3s-.98-.1-1.57-.1c-1,0-1.9,.17-2.71,.52-.81,.35-1.5,.83-2.06,1.46-.57,.63-1,1.39-1.31,2.28s-.46,1.88-.46,2.97c0,1.18,.17,2.24,.5,3.17,.34,.93,.81,1.72,1.42,2.36,.61,.64,1.34,1.13,2.2,1.47,.85,.34,1.8,.5,2.85,.5,.71,0,1.34-.07,1.9-.21,.56-.14,1.1-.34,1.64-.58v-3.61h-2.43c-.29,0-.51-.08-.67-.23-.16-.15-.24-.35-.24-.58v-2.47Z"/><path class="cls-7" d="M116.89,107.01h-3.45c-.38,0-.7-.09-.94-.27-.24-.18-.42-.42-.54-.7l-1.45-4.1h-8.55l-1.45,4.1c-.1,.25-.27,.47-.52,.67-.25,.2-.56,.3-.93,.3h-3.48l8.39-21.47h4.54l8.37,21.47Zm-7.46-8.15l-2.32-6.57c-.14-.34-.28-.75-.44-1.21-.15-.46-.3-.97-.44-1.51-.14,.55-.28,1.06-.44,1.53-.15,.47-.3,.88-.44,1.22l-2.31,6.54h6.38Z"/><path class="cls-7" d="M135.99,107.01h-4.01c-.75,0-1.29-.29-1.63-.86l-4.08-6.58c-.17-.26-.35-.44-.55-.56-.2-.12-.5-.18-.9-.18h-1.51v8.18h-4.44v-21.47h6.75c1.5,0,2.78,.16,3.85,.47,1.07,.31,1.94,.74,2.62,1.29,.68,.55,1.18,1.21,1.49,1.98,.32,.76,.47,1.61,.47,2.52,0,.71-.1,1.38-.3,2.02-.2,.64-.5,1.22-.88,1.74-.38,.52-.86,.99-1.42,1.39-.56,.4-1.2,.73-1.92,.98,.29,.16,.55,.35,.8,.57,.25,.22,.47,.49,.67,.79l5,7.72Zm-10.4-11.3c.72,0,1.34-.09,1.86-.27,.52-.18,.95-.43,1.29-.76,.34-.32,.58-.7,.74-1.13,.16-.43,.24-.91,.24-1.42,0-1.02-.34-1.81-1.01-2.37-.68-.56-1.7-.84-3.08-.84h-2.31v6.79h2.28Z"/><path class="cls-7" d="M152.78,89.12h-6.27v17.89h-4.45v-17.89h-6.27v-3.58h17v3.58Z"/><path class="cls-7" d="M167.07,89.65c-.14,.23-.28,.39-.42,.5-.14,.1-.33,.16-.56,.16s-.45-.08-.7-.23c-.25-.15-.55-.32-.88-.5-.34-.18-.72-.34-1.15-.5-.43-.15-.94-.23-1.52-.23-1.03,0-1.8,.23-2.31,.69-.51,.46-.77,1.06-.77,1.8,0,.47,.14,.87,.42,1.18,.28,.31,.65,.58,1.11,.81,.46,.23,.98,.43,1.56,.61,.58,.18,1.18,.37,1.79,.58,.61,.21,1.21,.46,1.79,.75,.58,.29,1.1,.65,1.56,1.08s.83,.96,1.11,1.59c.28,.63,.42,1.39,.42,2.29,0,.98-.17,1.89-.51,2.74-.34,.85-.83,1.6-1.47,2.23-.64,.64-1.43,1.14-2.37,1.5-.94,.36-2.01,.55-3.2,.55-.68,0-1.36-.07-2.03-.21-.68-.14-1.33-.33-1.95-.58-.63-.25-1.22-.54-1.77-.89-.55-.35-1.04-.73-1.45-1.15l1.3-2.1c.11-.16,.25-.29,.43-.39,.18-.1,.36-.16,.56-.16,.27,0,.55,.1,.84,.3s.64,.41,1.02,.65c.39,.24,.83,.45,1.34,.65,.51,.2,1.12,.3,1.83,.3,1.04,0,1.84-.24,2.4-.71,.57-.47,.85-1.18,.85-2.12,0-.54-.14-.98-.42-1.32-.28-.34-.65-.62-1.1-.84s-.97-.42-1.55-.58c-.58-.16-1.18-.34-1.79-.54-.61-.2-1.21-.43-1.79-.71-.58-.28-1.1-.64-1.55-1.1s-.82-1.02-1.1-1.69c-.28-.67-.42-1.5-.42-2.5,0-.8,.16-1.57,.47-2.32,.32-.75,.78-1.41,1.39-2,.61-.58,1.36-1.05,2.26-1.41s1.92-.53,3.07-.53c1.29,0,2.49,.2,3.59,.6,1.1,.4,2.03,.95,2.79,1.66l-1.1,2.09Z"/><path class="cls-7" d="M193.4,101.73c.25,0,.45,.09,.62,.27l1.76,1.88c-.87,1.1-1.95,1.94-3.23,2.52-1.29,.57-2.82,.86-4.59,.86-1.61,0-3.05-.27-4.34-.82-1.28-.55-2.37-1.31-3.27-2.29-.9-.98-1.59-2.14-2.07-3.48-.48-1.34-.72-2.81-.72-4.39,0-1.07,.12-2.08,.35-3.04s.57-1.85,1.01-2.66c.44-.81,.98-1.54,1.61-2.19,.63-.65,1.33-1.21,2.12-1.66,.79-.46,1.65-.81,2.58-1.05,.93-.24,1.93-.36,2.98-.36,.79,0,1.54,.07,2.24,.21,.71,.14,1.36,.33,1.98,.58,.61,.25,1.18,.55,1.69,.9,.52,.35,.98,.73,1.4,1.15l-1.49,2.04c-.09,.13-.2,.24-.34,.34-.14,.1-.33,.15-.56,.15s-.48-.08-.72-.25c-.24-.17-.54-.36-.89-.56-.35-.21-.79-.39-1.32-.56-.53-.17-1.2-.25-2-.25-.9,0-1.72,.16-2.47,.49-.75,.33-1.39,.8-1.93,1.41-.54,.62-.95,1.37-1.25,2.27s-.44,1.92-.44,3.06,.16,2.18,.48,3.08,.76,1.67,1.32,2.29c.56,.62,1.21,1.09,1.95,1.41s1.54,.48,2.39,.48c.5,0,.96-.02,1.37-.07,.41-.05,.79-.13,1.14-.25,.35-.12,.68-.27,.99-.46s.62-.42,.94-.71c.11-.09,.22-.16,.34-.22,.12-.06,.25-.09,.38-.09Z"/><path class="cls-7" d="M202.75,89.02v5.52h7.16v3.36h-7.16v5.64h9.2v3.48h-13.67v-21.47h13.67v3.48h-9.2Z"/><path class="cls-7" d="M233.66,85.54v21.47h-2.29c-.35,0-.64-.06-.87-.17-.24-.11-.47-.31-.7-.58l-10.7-13.61c.03,.35,.05,.69,.07,1.02,.01,.34,.02,.65,.02,.93v12.41h-3.92v-21.47h2.34c.19,0,.35,0,.48,.02s.25,.05,.36,.1c.11,.05,.21,.13,.31,.21,.1,.09,.21,.21,.33,.36l10.77,13.67c-.04-.37-.07-.74-.09-1.09-.02-.35-.03-.68-.03-1v-12.28h3.92Z"/><path class="cls-7" d="M253.35,89.12h-6.27v17.89h-4.45v-17.89h-6.27v-3.58h17v3.58Z"/><path class="cls-7" d="M273.15,107.01h-4.01c-.75,0-1.29-.29-1.63-.86l-4.08-6.58c-.17-.26-.35-.44-.56-.56-.2-.12-.5-.18-.9-.18h-1.51v8.18h-4.44v-21.47h6.75c1.5,0,2.78,.16,3.85,.47,1.07,.31,1.94,.74,2.62,1.29,.68,.55,1.18,1.21,1.49,1.98,.32,.76,.47,1.61,.47,2.52,0,.71-.1,1.38-.3,2.02-.2,.64-.5,1.22-.88,1.74-.38,.52-.86,.99-1.42,1.39-.56,.4-1.2,.73-1.92,.98,.29,.16,.55,.35,.8,.57,.25,.22,.47,.49,.67,.79l5,7.72Zm-10.4-11.3c.72,0,1.34-.09,1.86-.27,.52-.18,.95-.43,1.29-.76,.34-.32,.58-.7,.74-1.13,.16-.43,.24-.91,.24-1.42,0-1.02-.34-1.81-1.01-2.37-.68-.56-1.7-.84-3.08-.84h-2.31v6.79h2.28Z"/><path class="cls-7" d="M279.72,89.02v5.52h7.16v3.36h-7.16v5.64h9.2v3.48h-13.67v-21.47h13.67v3.48h-9.2Z"/><path class="cls-6" d="M107.46,117.04c-.08,.13-.16,.22-.25,.29-.09,.06-.2,.1-.32,.1-.14,0-.31-.07-.51-.22-.19-.14-.44-.3-.73-.48-.29-.17-.64-.33-1.05-.48-.41-.14-.91-.22-1.49-.22-.55,0-1.03,.07-1.45,.22s-.77,.35-1.05,.6c-.28,.25-.5,.55-.64,.89s-.22,.71-.22,1.11c0,.51,.12,.93,.37,1.26,.25,.33,.58,.62,.99,.86s.88,.44,1.4,.62c.52,.17,1.05,.35,1.6,.54,.55,.19,1.08,.4,1.6,.63,.52,.23,.99,.53,1.4,.88,.41,.35,.74,.79,.99,1.31,.25,.52,.37,1.15,.37,1.9,0,.79-.14,1.54-.41,2.24s-.67,1.3-1.19,1.82c-.52,.52-1.16,.92-1.92,1.22-.76,.3-1.62,.44-2.58,.44-1.18,0-2.26-.21-3.22-.64-.96-.43-1.79-1-2.47-1.73l.71-1.17c.07-.09,.15-.17,.25-.23,.1-.06,.2-.09,.32-.09,.11,0,.23,.04,.37,.13,.14,.09,.3,.2,.48,.34s.38,.28,.61,.44c.23,.16,.49,.31,.78,.44,.29,.14,.62,.25,1,.34,.37,.09,.79,.13,1.26,.13,.58,0,1.1-.08,1.56-.24,.46-.16,.84-.39,1.16-.68s.56-.64,.73-1.05c.17-.41,.25-.86,.25-1.36,0-.55-.12-1-.37-1.35-.25-.35-.58-.64-.98-.88-.41-.24-.87-.44-1.4-.6-.52-.16-1.06-.33-1.6-.51-.54-.17-1.07-.37-1.6-.6-.52-.23-.99-.52-1.4-.89-.41-.36-.73-.82-.98-1.36s-.37-1.22-.37-2.02c0-.64,.12-1.26,.37-1.86,.25-.6,.61-1.13,1.09-1.6,.48-.46,1.07-.84,1.76-1.12,.7-.28,1.5-.42,2.4-.42,1.01,0,1.94,.16,2.77,.48,.83,.32,1.57,.79,2.2,1.4l-.6,1.17Z"/><path class="cls-6" d="M116.73,119.32c.94,0,1.78,.16,2.54,.47,.75,.31,1.4,.76,1.93,1.33,.53,.58,.94,1.27,1.22,2.09,.28,.82,.42,1.73,.42,2.73s-.14,1.93-.42,2.74c-.28,.81-.69,1.51-1.22,2.08-.53,.57-1.18,1.02-1.93,1.33-.75,.31-1.6,.46-2.54,.46s-1.8-.15-2.56-.46c-.76-.31-1.4-.75-1.93-1.33-.53-.57-.94-1.27-1.22-2.08-.28-.81-.42-1.72-.42-2.74s.14-1.92,.42-2.73c.28-.82,.69-1.51,1.22-2.09,.53-.57,1.18-1.02,1.93-1.33,.76-.31,1.61-.47,2.56-.47Zm0,11.46c1.27,0,2.22-.42,2.84-1.27,.63-.85,.94-2.04,.94-3.56s-.31-2.72-.94-3.58c-.63-.85-1.57-1.28-2.84-1.28-.64,0-1.2,.11-1.68,.33-.48,.22-.88,.54-1.19,.95-.32,.41-.55,.92-.71,1.53s-.23,1.29-.23,2.05c0,1.52,.31,2.71,.95,3.56,.63,.85,1.59,1.27,2.87,1.27Z"/><path class="cls-6" d="M134.64,121.81c-.07,.09-.14,.17-.2,.22s-.16,.08-.28,.08c-.13,0-.27-.05-.42-.16-.15-.11-.34-.22-.56-.35-.22-.13-.5-.24-.82-.35-.33-.11-.73-.16-1.2-.16-.63,0-1.19,.11-1.67,.34-.48,.22-.89,.55-1.21,.97-.33,.42-.57,.93-.74,1.53-.16,.6-.25,1.27-.25,2.02s.09,1.47,.27,2.07c.18,.6,.43,1.11,.75,1.52,.33,.41,.72,.72,1.18,.94,.46,.22,.98,.32,1.55,.32s1-.07,1.36-.2c.36-.13,.65-.28,.88-.44s.43-.31,.58-.44c.16-.13,.31-.2,.46-.2,.19,0,.33,.07,.43,.22l.63,.82c-.28,.35-.6,.64-.95,.89-.35,.25-.74,.45-1.15,.62-.41,.16-.84,.28-1.29,.36-.45,.08-.9,.11-1.37,.11-.8,0-1.55-.15-2.24-.44-.69-.3-1.29-.72-1.79-1.29-.51-.56-.9-1.25-1.19-2.07s-.43-1.75-.43-2.8c0-.96,.13-1.84,.4-2.65,.27-.81,.66-1.51,1.17-2.1,.51-.59,1.14-1.05,1.89-1.38,.75-.33,1.61-.49,2.58-.49,.9,0,1.7,.15,2.39,.44s1.3,.7,1.83,1.24l-.6,.81Z"/><path class="cls-6" d="M140.68,115.49c0,.22-.04,.42-.13,.62-.09,.19-.21,.36-.35,.51-.15,.15-.32,.26-.52,.35s-.41,.13-.63,.13-.42-.04-.62-.13c-.19-.08-.36-.2-.5-.35-.14-.15-.26-.32-.34-.51s-.13-.4-.13-.62,.04-.43,.13-.63,.2-.37,.34-.52,.31-.26,.5-.35c.19-.08,.4-.13,.62-.13s.43,.04,.63,.13c.2,.08,.37,.2,.52,.35,.15,.15,.27,.32,.35,.52,.09,.2,.13,.41,.13,.63Zm-.48,4.03v12.85h-2.26v-12.85h2.26Z"/><path class="cls-6" d="M154.32,130.57c-.28,.34-.61,.63-1,.88-.39,.25-.81,.45-1.25,.62-.44,.16-.9,.28-1.38,.36-.47,.08-.94,.12-1.41,.12-.89,0-1.71-.15-2.45-.45-.75-.3-1.39-.74-1.94-1.32s-.97-1.3-1.27-2.15c-.3-.85-.46-1.83-.46-2.94,0-.9,.14-1.73,.41-2.51,.27-.78,.67-1.45,1.19-2.02,.52-.57,1.15-1.02,1.89-1.34,.74-.33,1.58-.49,2.51-.49,.77,0,1.48,.13,2.14,.39,.66,.26,1.22,.63,1.7,1.12,.48,.49,.85,1.09,1.12,1.8,.27,.71,.41,1.53,.41,2.44,0,.36-.04,.59-.11,.71-.08,.12-.22,.18-.43,.18h-8.59c.03,.81,.14,1.52,.34,2.12,.2,.6,.48,1.1,.83,1.5,.36,.4,.78,.7,1.27,.9s1.04,.3,1.65,.3c.57,0,1.05-.07,1.47-.2,.41-.13,.76-.27,1.06-.42,.3-.15,.54-.29,.74-.42,.2-.13,.37-.2,.51-.2,.19,0,.33,.07,.43,.22l.63,.82Zm-1.83-6.02c0-.52-.07-1-.22-1.44-.15-.44-.36-.81-.65-1.13-.28-.32-.63-.56-1.03-.74-.41-.17-.87-.26-1.38-.26-1.08,0-1.94,.31-2.57,.94-.63,.63-1.02,1.5-1.17,2.62h7.03Z"/><path class="cls-6" d="M161.15,132.58c-1.01,0-1.79-.28-2.34-.85-.54-.57-.82-1.38-.82-2.45v-7.86h-1.55c-.14,0-.25-.04-.34-.12-.09-.08-.14-.2-.14-.37v-.9l2.11-.27,.52-3.97c.03-.13,.08-.23,.17-.31,.09-.08,.21-.12,.35-.12h1.14v4.43h3.72v1.64h-3.72v7.71c0,.54,.13,.94,.39,1.21s.6,.39,1.01,.39c.24,0,.44-.03,.62-.1,.17-.06,.32-.13,.45-.21,.13-.08,.23-.15,.32-.21,.09-.06,.17-.1,.23-.1,.12,0,.22,.07,.32,.22l.66,1.08c-.39,.36-.86,.65-1.41,.86-.55,.21-1.12,.31-1.7,.31Z"/><path class="cls-6" d="M177.38,119.53l-7.17,16.64c-.08,.17-.17,.3-.29,.41-.11,.1-.29,.15-.53,.15h-1.67l2.35-5.1-5.3-12.1h1.95c.19,0,.35,.05,.46,.15s.19,.21,.23,.32l3.44,8.09c.14,.36,.25,.73,.34,1.12,.12-.4,.25-.77,.38-1.13l3.34-8.08c.05-.14,.14-.25,.26-.34,.12-.09,.26-.13,.41-.13h1.79Z"/></g></svg>